<?xml version="1.0" standalone="no"?>
<!DOCTYPE svg PUBLIC "-//W3C//DTD SVG 20010904//EN"
 "http://www.w3.org/TR/2001/REC-SVG-20010904/DTD/svg10.dtd">
<svg version="1.0" xmlns="http://www.w3.org/2000/svg"
 width="512.000000pt" height="512.000000pt" viewBox="0 0 512.000000 512.000000"
 preserveAspectRatio="xMidYMid meet">
<metadata>
Created by potrace 1.14, written by Peter Selinger 2001-2017
</metadata>
<g transform="translate(0.000000,512.000000) scale(0.100000,-0.100000)"
fill="#000000" stroke="none">
<path d="M598 5106 c-127 -34 -226 -151 -249 -294 -5 -31 -12 -178 -15 -327
-9 -377 13 -623 82 -920 l26 -110 -75 -145 c-139 -267 -226 -527 -296 -880
-55 -277 -85 -671 -61 -810 48 -284 273 -644 567 -905 444 -396 956 -617 1613
-697 138 -17 602 -17 740 0 652 80 1157 296 1603 687 295 258 529 629 577 915
23 135 -3 488 -56 780 -61 334 -149 603 -285 877 l-91 182 25 108 c58 244 77
405 84 708 7 312 -7 538 -39 623 -13 35 -40 76 -71 109 -110 116 -226 136
-437 75 -398 -116 -783 -320 -1018 -537 l-57 -53 -75 14 c-306 59 -754 58
-1065 -1 l-70 -13 -57 53 c-240 222 -644 433 -1036 541 -133 36 -188 40 -264
20z m156 -201 c246 -62 551 -192 759 -322 68 -42 220 -158 252 -193 l30 -32
-54 -49 c-58 -52 -192 -127 -250 -140 -22 -5 -54 -4 -79 3 -38 9 -70 37 -240
207 -277 277 -357 326 -533 325 l-96 0 5 51 c6 74 31 116 82 143 53 26 47 26
124 7z m3736 -7 c51 -27 76 -69 82 -143 l5 -51 -96 0 c-176 1 -256 -48 -533
-325 -252 -251 -256 -252 -441 -157 -42 22 -101 62 -129 89 l-52 49 30 31 c32
34 184 151 251 192 205 128 500 254 753 321 75 19 80 19 130 -6z m-3730 -426
c41 -20 108 -79 265 -233 116 -113 224 -215 240 -226 52 -36 140 -56 223 -51
65 5 87 12 185 61 126 62 209 126 275 207 25 30 50 58 57 62 6 4 76 17 156 29
207 33 590 33 796 1 78 -12 149 -25 158 -28 8 -3 31 -29 52 -56 57 -78 156
-154 283 -216 l115 -57 100 0 c148 0 166 11 421 263 212 210 276 259 361 277
41 8 93 -8 123 -40 23 -24 23 -26 17 -222 -7 -200 -23 -354 -53 -514 l-17 -87
-71 60 c-79 67 -125 91 -159 83 -34 -9 -67 -41 -76 -72 -14 -50 4 -86 72 -141
35 -28 97 -86 138 -129 261 -274 488 -1038 492 -1653 1 -145 0 -160 -27 -240
-127 -382 -498 -777 -961 -1025 -581 -312 -1345 -404 -2055 -249 -147 32 -374
108 -518 172 -529 236 -978 678 -1118 1102 -25 78 -28 97 -27 225 3 506 153
1116 367 1493 61 108 146 207 255 296 82 67 100 104 78 158 -10 23 -27 41 -51
52 -50 24 -83 11 -171 -64 -38 -33 -73 -60 -76 -60 -9 0 -38 157 -55 300 -8
63 -17 199 -21 303 -6 187 -6 187 17 212 48 51 116 53 210 7z"/>
<path d="M1514 2860 c-59 -18 -126 -73 -156 -127 -61 -108 -45 -227 41 -313
106 -106 266 -106 372 0 125 125 95 329 -61 414 -57 31 -143 42 -196 26z"/>
<path d="M3470 2855 c-134 -42 -211 -195 -168 -337 15 -50 78 -122 132 -151
58 -30 174 -31 231 0 96 51 147 134 147 238 -1 115 -76 218 -183 249 -63 19
-99 19 -159 1z"/>
<path d="M2435 2206 c-182 -35 -309 -123 -367 -253 -32 -71 -23 -178 22 -263
50 -95 146 -187 249 -238 46 -23 92 -42 102 -42 36 0 28 -19 -29 -71 -59 -55
-152 -107 -232 -130 -78 -22 -233 -15 -325 15 -104 34 -129 33 -166 -3 -22
-22 -29 -39 -29 -68 0 -51 19 -76 79 -102 47 -20 53 -27 84 -94 106 -227 319
-378 589 -418 101 -15 299 -6 388 17 219 56 397 197 491 391 38 78 42 82 88
98 66 22 94 53 94 106 0 35 -6 48 -33 72 -38 33 -60 33 -175 -3 -135 -42 -299
-29 -426 36 -56 28 -169 120 -169 137 0 7 26 20 58 29 126 37 257 151 320 277
32 65 37 84 37 145 0 57 -5 82 -28 127 -49 101 -165 186 -303 223 -84 23 -234
28 -319 12z"/>
</g>
</svg>
