<svg xmlns="http://www.w3.org/2000/svg" viewBox="0 0 355.3 128" fill="#000"><title>poly-lt-wire-logo</title>

<path class="a" d="M92.4,54.8c10.2,0,13.9,1.6,16.9,4a18.79,18.79,0,0,1,6.5,14.5c0,5.6-2.3,11.4-5.8,14.4-3.8,3.2-7.5,4.8-16,4.8H88.5v17.2h-14V54.8Zm-4,25.4h5.1a13.87,13.87,0,0,0,5.4-.8c1.9-.8,3.3-2.5,3.3-5.8s-1.6-4.8-3.5-5.6a15.31,15.31,0,0,0-5.8-.8H88.3v13Z" transform="translate(0 0)"></path>
<path class="a" d="M116.2,89c0-10,7.2-21.8,22.2-21.8S160.6,79,160.6,89.1,153.4,111,138.4,111,116.2,99.2,116.2,89Zm12.3.1a9.91,9.91,0,1,0,9.9-10.5C133,78.6,128.5,83,128.5,89.1Z" transform="translate(0 0)"></path>
<path class="a" d="M164.5,54.8h12.3v54.9H164.5Z" transform="translate(0 0)"></path>
<path class="a" d="M195.1,107.6,179.9,68.5H193l8.4,23.9,7.9-23.9h13l-20.6,54.9h-13Z" transform="translate(0 0)"></path>
<path class="a" d="M266.5,104.7c0,6.2-.4,10.1-2.4,13.6-3.2,5.2-10.7,9.7-20.8,9.7-14.3,0-19.7-8.6-20.5-14.5H237a7.08,7.08,0,0,0,3.9,3.6,10.57,10.57,0,0,0,3.3.5c4.7,0,10-2.9,10-10v-2.4c-1.4,2.4-5,5.9-11.4,5.9-11.2,0-20.8-8.5-20.8-21.7,0-14.1,10.1-22.2,20.8-22.2,4.6,0,9.1,1.6,11.5,5.2V68.5h12.3v36.2ZM234.2,89c0,6.5,4.7,10.5,9.9,10.5a9.8,9.8,0,0,0,7.2-2.8,11.18,11.18,0,0,0,2.9-7.1,11.56,11.56,0,0,0-2.6-7.7,9.2,9.2,0,0,0-7.4-3.2,10,10,0,0,0-10,10q0,.15,0,.3Z" transform="translate(0 0)"></path>
<path class="a" d="M270.3,89c0-10,7.2-21.8,22.2-21.8S314.7,79,314.7,89.1,307.5,111,292.5,111,270.3,99.2,270.3,89Zm12.3.1a9.91,9.91,0,1,0,9.9-10.5C287.2,78.6,282.6,83,282.6,89.1Z" transform="translate(0 0)"></path>
<path class="a" d="M317.2,68.5h11.5v4.4c1.4-2,4-5.8,11.3-5.8,13.9,0,15.3,11.3,15.3,16.8v25.7H343V87.1c0-4.5-1-8.5-6.5-8.5-6.1,0-7,4.4-7,8.6v22.4H317.2Z" transform="translate(0 0)"></path>
<path class="a" d="M73.9,37.3a1.09,1.09,0,0,0,.1-.5v-.1c0-.2-.1-.3-.3-.5h0L37.8.3a1.4,1.4,0,0,0-.9-.3h-.1c-.2,0-.3.1-.5.3h0L.4,36.1a.1.1,0,0,1-.1.1.1.1,0,0,1-.1.1l-.1.1a.6.6,0,0,0-.1.4H0V72.9a.55.55,0,0,0,.3.5h0l35.9,35.9a1.14,1.14,0,0,0,.8.3.6.6,0,0,0,.4-.1,1.2,1.2,0,0,0,.7-1V73.1L73.7,37.5C73.8,37.5,73.8,37.4,73.9,37.3ZM36,38V70.2L3.7,38ZM2.2,39.5,34.4,71.7H2.2ZM38.1,38H70.3L38.1,70.2Zm0-2.2V3.6L70.3,35.8Zm-2.1,0H3.7L35.9,3.6V35.8Zm0,70.3L3.8,73.9H36Z" transform="translate(0 0)"></path></svg>